<svg xmlns="http://www.w3.org/2000/svg" xmlns:xlink="http://www.w3.org/1999/xlink" width="124.461" height="124.461" viewBox="0 0 124.461 124.461">
  <defs>
    <filter id="Trazado_896985" x="0" y="0" width="124.461" height="124.461" filterUnits="userSpaceOnUse">
      <feOffset dy="3" input="SourceAlpha"/>
      <feGaussianBlur stdDeviation="3" result="blur"/>
      <feFlood flood-opacity="0.161"/>
      <feComposite operator="in" in2="blur"/>
      <feComposite in="SourceGraphic"/>
    </filter>
  </defs>
  <g id="Grupo_1108281" data-name="Grupo 1108281" transform="translate(-1158.5 -2871.051)">
    <g id="Grupo_1108277" data-name="Grupo 1108277" transform="translate(410.719 -955.949)">
      <g id="Grupo_1098742" data-name="Grupo 1098742" transform="translate(756.781 3833)">
        <g transform="matrix(1, 0, 0, 1, -9, -6)" filter="url(#Trazado_896985)">
          <g id="Trazado_896985-2" data-name="Trazado 896985" transform="translate(9 6)" fill="#d4d7fc" opacity="0.859">
            <path d="M 53.23039627075195 104.9609375 C 46.24618148803711 104.9609375 39.4716682434082 103.5934143066406 33.09505462646484 100.8963241577148 C 26.93521118164062 98.29092407226562 21.40279579162598 94.56076812744141 16.65148162841797 89.80945587158203 C 11.90016746520996 85.05814361572266 8.170010566711426 79.52572631835938 5.564610481262207 73.36588287353516 C 2.867524862289429 66.98926544189453 1.499996304512024 60.21476745605469 1.499996304512024 53.23054122924805 C 1.499996304512024 46.24617004394531 2.867524862289429 39.4716682434082 5.564610481262207 33.09505462646484 C 8.170010566711426 26.93521118164062 11.90016746520996 21.40279769897461 16.65148162841797 16.6514835357666 C 21.40279579162598 11.90016841888428 26.93521118164062 8.170011520385742 33.09505462646484 5.564611434936523 C 39.4716682434082 2.867525815963745 46.24618148803711 1.49999737739563 53.23039627075195 1.49999737739563 C 60.2146110534668 1.49999737739563 66.98912811279297 2.867525815963745 73.36573791503906 5.564611434936523 C 79.52558135986328 8.170011520385742 85.05799865722656 11.90016841888428 89.80931091308594 16.6514835357666 C 94.56062316894531 21.40279769897461 98.29077911376953 26.93521118164062 100.8961791992188 33.09505462646484 C 103.5932693481445 39.4716682434082 104.9607925415039 46.24617004394531 104.9607925415039 53.23039627075195 C 104.9607925415039 60.21476745605469 103.5932693481445 66.98926544189453 100.8961791992188 73.36588287353516 C 98.29077911376953 79.52572631835938 94.56062316894531 85.05814361572266 89.80931091308594 89.80945587158203 C 85.05799865722656 94.56076812744141 79.52558135986328 98.29092407226562 73.36573791503906 100.8963241577148 C 66.98912811279297 103.5934143066406 60.2146110534668 104.9609375 53.23039627075195 104.9609375 Z" stroke="none"/>
            <path d="M 53.23039627075195 3 C 46.44801330566406 3 39.87009429931641 4.327667236328125 33.67938232421875 6.946121215820312 C 27.69834899902344 9.475883483886719 22.32617950439453 13.09809875488281 17.71214294433594 17.71215057373047 C 13.09809875488281 22.32618713378906 9.475875854492188 27.69834899902344 6.946113586425781 33.67938232421875 C 4.327659606933594 39.87010192871094 3 46.44801712036133 3 53.23053359985352 C 3 60.01292037963867 4.327659606933594 66.59083557128906 6.946113586425781 72.78155517578125 C 9.475875854492188 78.76258850097656 13.09809875488281 84.13475036621094 17.71214294433594 88.74878692626953 C 22.32617950439453 93.36283874511719 27.69834899902344 96.98505401611328 33.67938232421875 99.51481628417969 C 39.87009429931641 102.1332702636719 46.44801330566406 103.4609375 53.23039627075195 103.4609375 C 60.01277923583984 103.4609375 66.5906982421875 102.1332702636719 72.78141784667969 99.51481628417969 C 78.76244354248047 96.98505401611328 84.13461303710938 93.36283874511719 88.74864196777344 88.74878692626953 C 93.36269378662109 84.13475036621094 96.98490905761719 78.76258850097656 99.51467895507812 72.78155517578125 C 102.1331329345703 66.59083557128906 103.4608001708984 60.01292037963867 103.4608001708984 53.23040390014648 C 103.4608001708984 46.44801712036133 102.1331329345703 39.87010192871094 99.51467895507812 33.67938232421875 C 96.98490905761719 27.69834899902344 93.36269378662109 22.32618713378906 88.74864196777344 17.71215057373047 C 84.13461303710938 13.09809875488281 78.76244354248047 9.475883483886719 72.78141784667969 6.946121215820312 C 66.5906982421875 4.327667236328125 60.01277923583984 3 53.23039627075195 3 M 53.23039627075195 0 C 82.62873077392578 0 106.4607925415039 23.83206939697266 106.4607925415039 53.23040390014648 L 106.4607925415039 53.23053359985352 C 106.4607925415039 82.62886810302734 82.62873077392578 106.4609375 53.23039627075195 106.4609375 C 23.83206176757812 106.4609375 0 82.62886810302734 0 53.23053359985352 L 0 53.23040390014648 C 0 23.83206939697266 23.83206176757812 0 53.23039627075195 0 Z" stroke="none" fill="#fff"/>
          </g>
        </g>
        <g id="Rectángulo_400907" data-name="Rectángulo 400907" transform="translate(0 0)" fill="none" stroke="#fff" stroke-width="3">
          <rect width="106.461" height="106.461" rx="53.23" stroke="none"/>
          <rect x="1.5" y="1.5" width="103.461" height="103.461" rx="51.73" fill="none"/>
        </g>
      </g>
    </g>
    <g id="_010-oil" data-name="010-oil" transform="translate(1169.326 2896.193)">
      <path id="Trazado_898113" data-name="Trazado 898113" d="M71.36,27.8v5.614l-3.721.5A19.532,19.532,0,0,1,64.3,41.985l2.279,2.983-3.97,3.97-2.983-2.279A19.554,19.554,0,0,1,51.554,50l-.5,3.719H45.442L44.943,50a19.554,19.554,0,0,1-8.068-3.344l-2.983,2.279-3.97-3.97L32.2,41.985a19.554,19.554,0,0,1-3.344-8.068l-3.719-.5V27.8l3.719-.5A19.554,19.554,0,0,1,32.2,19.237l-2.279-2.983,3.97-3.97,2.983,2.279a19.534,19.534,0,0,1,8.063-3.341h.006l.5-3.721h5.614l.5,3.721a19.532,19.532,0,0,1,8.068,3.342l2.983-2.279,3.97,3.97L64.3,19.237a19.533,19.533,0,0,1,3.342,8.068Z" transform="translate(-6.412 -6.414)" fill="#da4a54"/>
      <circle id="Elipse_11501" data-name="Elipse 11501" cx="11.118" cy="11.118" r="11.118" transform="translate(30.719 13.08)" fill="#c32430"/>
      <circle id="Elipse_11502" data-name="Elipse 11502" cx="4.059" cy="4.059" r="4.059" transform="translate(37.779 20.139)" fill="#544f57"/>
      <path id="Trazado_898114" data-name="Trazado 898114" d="M168.816,176l1.546-6.224-3.987-1.577a22.346,22.346,0,0,0-1.483-9.867l3.348-2.679-3.308-5.495-3.935,1.7a22.349,22.349,0,0,0-8.025-5.928l.473-4.261-6.224-1.546-1.577,3.987a22.346,22.346,0,0,0-9.867,1.483l-2.679-3.348L127.6,145.56l1.7,3.935a22.348,22.348,0,0,0-5.928,8.025l-4.261-.473-1.546,6.224,3.987,1.577a22.346,22.346,0,0,0,1.483,9.867l-3.348,2.679L123,182.888l3.935-1.7a22.348,22.348,0,0,0,8.025,5.928l-.473,4.261,6.224,1.546,1.577-3.987a22.346,22.346,0,0,0,9.867-1.483l2.679,3.348,5.495-3.308-1.7-3.935a22.348,22.348,0,0,0,5.928-8.025Z" transform="translate(-85.453 -119.827)" fill="#e2dfe2"/>
      <path id="Trazado_898115" data-name="Trazado 898115" d="M35.121,41.459,32.09,44.49l2.278,2.983a19.571,19.571,0,0,0-3.342,8.068l-3.719.5v5.614l3.719.5a19.571,19.571,0,0,0,3.342,8.068L32.09,73.2l3.031,3.031-1.23.939-3.97-3.97L32.2,70.221a19.571,19.571,0,0,1-3.342-8.069l-3.721-.5V56.04l3.721-.5A19.571,19.571,0,0,1,32.2,47.473L29.921,44.49l3.97-3.97Z" transform="translate(-6.411 -34.65)" fill="#c32430"/>
      <path id="Trazado_898116" data-name="Trazado 898116" d="M116.885,7.5l-.5,3.721a26.024,26.024,0,0,0-9.233,4.109l-1-.766a19.533,19.533,0,0,1,8.063-3.341h.007l.5-3.721Z" transform="translate(-75.686 -6.414)" fill="#c32430"/>
      <g id="Grupo_1108278" data-name="Grupo 1108278" transform="translate(32.119 20.302)">
        <path id="Trazado_898117" data-name="Trazado 898117" d="M360.608,463.538l-1.649.992-2.68-3.348,1.923-.942Z" transform="translate(-321.695 -413.862)" fill="#cbcbcb"/>
        <path id="Trazado_898118" data-name="Trazado 898118" d="M315.028,140.657l-1.736,4.207-1.963-.748,1.578-3.987Z" transform="translate(-283.257 -140.13)" fill="#cbcbcb"/>
        <path id="Trazado_898119" data-name="Trazado 898119" d="M121.915,170.149l-1.546,6.224,3.987,1.576a22.361,22.361,0,0,0,1.482,9.866l-3.347,2.679,2.453,4.077-1.94.84-3.308-5.5,3.348-2.679a22.341,22.341,0,0,1-1.484-9.866l-3.987-1.576,1.546-6.224,4.262.472a22.312,22.312,0,0,1,5.929-8.025l-1.705-3.935,5.5-3.308,1.22,1.526-3.921,2.36,1.7,3.935a22.359,22.359,0,0,0-5.929,8.025Z" transform="translate(-117.574 -152.654)" fill="#cbcbcb"/>
        <path id="Trazado_898120" data-name="Trazado 898120" d="M193.03,425.159l-.345,5.135-2.924-.726.472-4.262a22.324,22.324,0,0,1-8.025-5.929l1.61-.7A28.412,28.412,0,0,0,193.03,425.159Z" transform="translate(-172.845 -378.323)" fill="#cbcbcb"/>
        <circle id="Elipse_11503" data-name="Elipse 11503" cx="13.891" cy="13.891" r="13.891" transform="translate(12.504 12.504)" fill="#cbcbcb"/>
      </g>
      <circle id="Elipse_11504" data-name="Elipse 11504" cx="3.455" cy="3.455" r="3.455" transform="translate(55.059 43.242)" fill="#665e66"/>
      <path id="Trazado_898121" data-name="Trazado 898121" d="M385.745,23.325q0,.3.008.593c.262,9.359,14.371,9.359,14.633,0q.008-.3.008-.593A20.714,20.714,0,0,0,393.07,7.5a20.714,20.714,0,0,0-7.325,15.825Z" transform="translate(-314.773 -6.414)" fill="#ecbe6b"/>
      <path id="Trazado_898122" data-name="Trazado 898122" d="M393.077,30.936a7,7,0,0,1-7.317-7.018c0-.2-.007-.394-.007-.593A20.715,20.715,0,0,1,393.077,7.5c-1.721,3.808-2.814,9.484-2.814,15.825,0,.2,0,.4,0,.593C390.317,28.6,391.7,30.936,393.077,30.936Z" transform="translate(-314.78 -6.414)" fill="#e7a52e"/>
      <path id="Trazado_898123" data-name="Trazado 898123" d="M85.309,48.941l-3.256-1.288a23.637,23.637,0,0,0-1.321-8.788l2.734-2.188a1.087,1.087,0,0,0,.252-1.409L80.41,29.773a1.087,1.087,0,0,0-1.363-.437l-3.214,1.392a23.636,23.636,0,0,0-7.148-5.28l.386-3.48a1.086,1.086,0,0,0-.818-1.174l-6.224-1.546-.037-.007a20.829,20.829,0,0,0-2.768-6.38l1.8-2.36a1.087,1.087,0,0,0-.1-1.428L56.963,5.1a1.087,1.087,0,0,0-1.428-.1l-2.36,1.8c-.424-.277-.858-.538-1.3-.779a1.087,1.087,0,0,0-1.048,1.9,18.189,18.189,0,0,1,1.751,1.1,1.087,1.087,0,0,0,1.289-.022l2.228-1.7,2.625,2.625-1.7,2.228A1.087,1.087,0,0,0,57,13.453a18.338,18.338,0,0,1,3.157,7.621,1.088,1.088,0,0,0,.057.2l-.744,1.882a23.582,23.582,0,0,0-5.443.415,12.205,12.205,0,1,0-16.332,12.1c-.148.28-.293.563-.429.849l-3.48-.386a1.086,1.086,0,0,0-1.174.818l-.728,2.93c-.267-.17-.532-.345-.789-.528a1.087,1.087,0,0,0-1.289.022l-2.227,1.7-2.625-2.625,1.7-2.228a1.087,1.087,0,0,0,.022-1.288,18.356,18.356,0,0,1-3.157-7.621,1.087,1.087,0,0,0-.927-.9l-2.777-.372V22.341l2.777-.372a1.087,1.087,0,0,0,.927-.9,18.358,18.358,0,0,1,3.157-7.621,1.087,1.087,0,0,0-.022-1.288l-1.7-2.227,2.625-2.625,2.227,1.7a1.087,1.087,0,0,0,1.289.022,18.319,18.319,0,0,1,7.62-3.157,1.086,1.086,0,0,0,.9-.927l.372-2.778h3.712l.371,2.778a1.087,1.087,0,0,0,.9.928,18.473,18.473,0,0,1,2.1.482,1.087,1.087,0,0,0,.609-2.086c-.511-.149-1.031-.279-1.554-.389L45.722.943A1.087,1.087,0,0,0,44.645,0H39.031a1.087,1.087,0,0,0-1.077.942l-.394,2.943A20.8,20.8,0,0,0,30.5,6.81l-2.36-1.8a1.087,1.087,0,0,0-1.428.1l-3.97,3.97a1.086,1.086,0,0,0-.1,1.428l1.8,2.36a20.84,20.84,0,0,0-2.924,7.059l-2.942.394a1.087,1.087,0,0,0-.942,1.077V27a1.087,1.087,0,0,0,.942,1.077l2.942.394a20.838,20.838,0,0,0,2.924,7.059l-1.8,2.36a1.086,1.086,0,0,0,.1,1.428l3.97,3.97a1.087,1.087,0,0,0,1.428.1l2.36-1.8q.41.268.832.516l-.269,1.081a1.087,1.087,0,0,0,.655,1.273l3.256,1.288A23.637,23.637,0,0,0,36.3,54.53l-2.734,2.188a1.087,1.087,0,0,0-.252,1.409l3.308,5.495a1.087,1.087,0,0,0,1.363.437l3.213-1.392a23.637,23.637,0,0,0,7.148,5.28l-.386,3.48a1.086,1.086,0,0,0,.818,1.174L55,74.148a1.086,1.086,0,0,0,1.273-.655l1.288-3.256a23.629,23.629,0,0,0,8.788-1.321l2.188,2.734a1.087,1.087,0,0,0,1.409.252l5.495-3.308a1.087,1.087,0,0,0,.437-1.363l-1.392-3.213a23.639,23.639,0,0,0,5.28-7.148l3.48.386a1.087,1.087,0,0,0,1.174-.818l1.546-6.224a1.087,1.087,0,0,0-.655-1.272ZM31.807,24.2a10.03,10.03,0,0,1,20.059-.1q-.6.175-1.185.381l-2.188-2.734a1.087,1.087,0,0,0-1.409-.252l-.648.39A5.149,5.149,0,1,0,42.511,29.3l.034.08a23.636,23.636,0,0,0-3.72,4.389A9.976,9.976,0,0,1,31.807,24.2Zm9.783.6a1.087,1.087,0,0,0-.437,1.363l.43.992a2.971,2.971,0,1,1,2.979-4.145ZM82.538,54.991l-3.316-.368a1.085,1.085,0,0,0-1.116.646A21.116,21.116,0,0,1,72.465,62.9a1.087,1.087,0,0,0-.289,1.256L73.5,67.222l-3.865,2.327-2.085-2.605a1.087,1.087,0,0,0-1.245-.333,21.121,21.121,0,0,1-9.388,1.411,1.087,1.087,0,0,0-1.093.684l-1.227,3.1L50.22,70.721l.368-3.316a1.087,1.087,0,0,0-.646-1.116,21.117,21.117,0,0,1-7.635-5.641,1.087,1.087,0,0,0-1.256-.289l-3.062,1.327-2.327-3.866,2.605-2.085A1.087,1.087,0,0,0,38.6,54.49,21.116,21.116,0,0,1,37.188,45.1,1.087,1.087,0,0,0,36.5,44.01l-3.1-1.227L34.489,38.4l3.316.368a1.087,1.087,0,0,0,1.116-.646,21.117,21.117,0,0,1,5.641-7.635,1.087,1.087,0,0,0,.289-1.256l-1.327-3.062,3.865-2.327,2.085,2.605a1.087,1.087,0,0,0,1.245.333,21.117,21.117,0,0,1,9.388-1.411,1.085,1.085,0,0,0,1.093-.684l1.227-3.1,4.379,1.088-.368,3.316a1.087,1.087,0,0,0,.646,1.116,21.116,21.116,0,0,1,7.635,5.641,1.087,1.087,0,0,0,1.256.289l3.062-1.327,2.327,3.865L78.76,37.659a1.087,1.087,0,0,0-.333,1.245,21.112,21.112,0,0,1,1.411,9.387,1.087,1.087,0,0,0,.684,1.093l3.1,1.227Z" transform="translate(0 0)"/>
      <path id="Trazado_898124" data-name="Trazado 898124" d="M211.358,218.94a14.977,14.977,0,1,0,5.463,28.926,1.087,1.087,0,0,0-.793-2.023,12.819,12.819,0,1,1,3.44-2.017,1.087,1.087,0,1,0,1.377,1.681,14.977,14.977,0,0,0-9.487-26.567Z" transform="translate(-152.844 -187.22)"/>
      <path id="Trazado_898125" data-name="Trazado 898125" d="M268.411,295.509a4.541,4.541,0,1,0,4.541-4.541A4.547,4.547,0,0,0,268.411,295.509Zm6.91,0a2.368,2.368,0,1,1-2.368-2.368A2.371,2.371,0,0,1,275.321,295.509Z" transform="translate(-214.439 -248.812)"/>
      <path id="Trazado_898126" data-name="Trazado 898126" d="M387.36.258a1.086,1.086,0,0,0-1.407,0,21.822,21.822,0,0,0-7.708,16.653q0,.313.009.623a8.025,8.025,0,0,0,2.739,6.058,8.962,8.962,0,0,0,11.328,0,8.024,8.024,0,0,0,2.739-6.058q.009-.311.009-.623A21.822,21.822,0,0,0,387.36.258Zm5.527,17.215a6.236,6.236,0,0,1-12.461,0q-.008-.28-.008-.562a19.647,19.647,0,0,1,6.238-14.37,19.648,19.648,0,0,1,6.238,14.37Q392.895,17.194,392.887,17.474Z" transform="translate(-308.36)"/>
    </g>
  </g>
</svg>
