<svg xmlns="http://www.w3.org/2000/svg" xmlns:xlink="http://www.w3.org/1999/xlink" width="190" height="117" viewBox="0 0 190 117">
  <defs>
    <clipPath id="clip-path">
      <rect id="Rectángulo_403177" data-name="Rectángulo 403177" width="73" height="98" transform="translate(0.239 -0.349)" fill="none"/>
    </clipPath>
  </defs>
  <g id="Grupo_1108247" data-name="Grupo 1108247" transform="translate(-180 -811)">
    <rect id="Rectángulo_403092" data-name="Rectángulo 403092" width="190" height="117" transform="translate(180 811)" fill="#aab0fa"/>
    <g id="Grupo_1108249" data-name="Grupo 1108249" transform="translate(241.761 821.349)">
      <g id="Grupo_1108248" data-name="Grupo 1108248" clip-path="url(#clip-path)">
        <path id="Trazado_898025" data-name="Trazado 898025" d="M50.671,66.093v7.629H42.248a13.723,13.723,0,0,1-22.826,0H11V58.464h8.438a13.784,13.784,0,0,1,6.82-5.31V31h9.155V53.155a13.784,13.784,0,0,1,6.82,5.31h8.438Zm-13.732,0a6.1,6.1,0,1,0-6.1,6.1,6.1,6.1,0,0,0,6.1-6.1" transform="translate(5.784 16.3)" fill="#707789"/>
        <path id="Trazado_898026" data-name="Trazado 898026" d="M54.774,13V40.464H9V13Z" transform="translate(4.732 6.835)" fill="#bec3d2"/>
        <path id="Trazado_898027" data-name="Trazado 898027" d="M45.619,13V31.31H9v9.155H54.774V13Z" transform="translate(4.732 6.835)" fill="#afb4c8"/>
        <path id="Trazado_898028" data-name="Trazado 898028" d="M54.774,9v6.1H9V9H54.774Z" transform="translate(4.732 4.732)" fill="#b5efff"/>
        <rect id="Rectángulo_403176" data-name="Rectángulo 403176" width="9" height="6" transform="translate(50.239 13.651)" fill="#80dbff"/>
        <path id="Trazado_898029" data-name="Trazado 898029" d="M54.774,4.052v9.155H9V4.052A3.061,3.061,0,0,1,12.052,1H51.722a3.061,3.061,0,0,1,3.052,3.052" transform="translate(4.732 0.526)" fill="#19cffc"/>
        <path id="Trazado_898030" data-name="Trazado 898030" d="M40.155,1H31a3.061,3.061,0,0,1,3.052,3.052v9.155h9.155V4.052A3.061,3.061,0,0,0,40.155,1" transform="translate(16.3 0.526)" fill="#4a98f7"/>
        <path id="Trazado_898031" data-name="Trazado 898031" d="M27.31,46.774H9V4.052A3.061,3.061,0,0,1,12.052,1H51.722a3.061,3.061,0,0,1,3.052,3.052V46.774H36.464" transform="translate(4.732 0.526)" fill="none" stroke="#000" stroke-linejoin="round" stroke-width="2"/>
        <line id="Línea_572" data-name="Línea 572" x2="28" transform="translate(13.239 13.651)" fill="none" stroke="#000" stroke-linejoin="round" stroke-width="2"/>
        <line id="Línea_573" data-name="Línea 573" x2="3" transform="translate(44.239 13.651)" fill="none" stroke="#000" stroke-linejoin="round" stroke-width="2"/>
        <line id="Línea_574" data-name="Línea 574" x2="9" transform="translate(50.239 13.651)" fill="none" stroke="#000" stroke-linejoin="round" stroke-width="2"/>
        <line id="Línea_575" data-name="Línea 575" x2="46" transform="translate(13.239 19.651)" fill="none" stroke="#000" stroke-linejoin="round" stroke-width="2"/>
        <circle id="Elipse_11495" data-name="Elipse 11495" cx="6" cy="6" r="6" transform="translate(30.239 76.651)" fill="none" stroke="#000" stroke-linejoin="round" stroke-width="2"/>
        <path id="Trazado_898032" data-name="Trazado 898032" d="M50.671,66.093V58.464H42.233a13.784,13.784,0,0,0-6.82-5.31V31H26.258V53.155a13.784,13.784,0,0,0-6.82,5.31H11V73.722h8.422a13.723,13.723,0,0,0,22.826,0h8.422Z" transform="translate(5.784 16.3)" fill="none" stroke="#000" stroke-linejoin="round" stroke-width="2"/>
        <line id="Línea_576" data-name="Línea 576" x2="9" transform="translate(17.239 82.651)" fill="none" stroke="#000" stroke-linejoin="round" stroke-width="2"/>
        <line id="Línea_577" data-name="Línea 577" x2="9" transform="translate(47.239 82.651)" fill="none" stroke="#000" stroke-linejoin="round" stroke-width="2"/>
        <line id="Línea_578" data-name="Línea 578" y2="23" transform="translate(36.239 47.651)" fill="none" stroke="#000" stroke-linejoin="round" stroke-width="2"/>
        <line id="Línea_579" data-name="Línea 579" y2="29" transform="translate(65.239 31.651)" fill="none" stroke="#000" stroke-linejoin="round" stroke-width="2"/>
        <line id="Línea_580" data-name="Línea 580" y2="3" transform="translate(65.239 63.651)" fill="none" stroke="#000" stroke-linejoin="round" stroke-width="2"/>
        <line id="Línea_581" data-name="Línea 581" y2="29" transform="translate(71.239 48.651)" fill="none" stroke="#000" stroke-linejoin="round" stroke-width="2"/>
        <line id="Línea_582" data-name="Línea 582" y2="3" transform="translate(71.239 80.651)" fill="none" stroke="#000" stroke-linejoin="round" stroke-width="2"/>
        <line id="Línea_583" data-name="Línea 583" y2="29" transform="translate(7.239 31.651)" fill="none" stroke="#000" stroke-linejoin="round" stroke-width="2"/>
        <line id="Línea_584" data-name="Línea 584" y2="3" transform="translate(7.239 63.651)" fill="none" stroke="#000" stroke-linejoin="round" stroke-width="2"/>
        <line id="Línea_585" data-name="Línea 585" y2="29" transform="translate(1.239 48.651)" fill="none" stroke="#000" stroke-linejoin="round" stroke-width="2"/>
        <line id="Línea_586" data-name="Línea 586" y2="3" transform="translate(1.239 80.651)" fill="none" stroke="#000" stroke-linejoin="round" stroke-width="2"/>
      </g>
    </g>
  </g>
</svg>
