<svg xmlns="http://www.w3.org/2000/svg" xmlns:xlink="http://www.w3.org/1999/xlink" width="97" height="97" viewBox="0 0 97 97">
  <defs>
    <clipPath id="clip-path">
      <rect id="Rectángulo_403196" data-name="Rectángulo 403196" width="78.315" height="79.429" fill="none"/>
    </clipPath>
  </defs>
  <g id="Grupo_1108263" data-name="Grupo 1108263" transform="translate(-421.051 -2002)">
    <g id="Grupo_1108259" data-name="Grupo 1108259" transform="translate(430.113 2010.978)">
      <g id="Grupo_1108258" data-name="Grupo 1108258" clip-path="url(#clip-path)">
        <path id="Trazado_898066" data-name="Trazado 898066" d="M59.657,37.943A7.942,7.942,0,0,0,51.714,30H19.943A7.942,7.942,0,0,0,12,37.943V47.21l5.3,2.648H59.657Z" transform="translate(3.886 9.714)" fill="#4398d1"/>
        <path id="Trazado_898067" data-name="Trazado 898067" d="M43.3,30H38a7.942,7.942,0,0,1,7.943,7.943V49.857h5.3V37.943A7.942,7.942,0,0,0,43.3,30" transform="translate(12.305 9.714)" fill="#3e8cc7"/>
        <path id="Trazado_898068" data-name="Trazado 898068" d="M26,23v9.267l5.3,7.943,5.3-7.943V23Z" transform="translate(8.419 7.448)" fill="#fec9a3"/>
        <path id="Trazado_898069" data-name="Trazado 898069" d="M26,30l5.3,7.943L36.59,30Z" transform="translate(8.419 9.714)" fill="#ebebeb"/>
        <rect id="Rectángulo_403185" data-name="Rectángulo 403185" width="2.648" height="9.267" transform="translate(22.505 50.305)" fill="#2a7db8"/>
        <rect id="Rectángulo_403186" data-name="Rectángulo 403186" width="2.648" height="9.267" transform="translate(54.276 50.305)" fill="#2a7db8"/>
        <path id="Trazado_898070" data-name="Trazado 898070" d="M39.886,30H37.238l-5.3,7.943L26.648,30H24v5.3L30.619,37.5V49.857h2.648V37.5L39.886,35.3Z" transform="translate(7.771 9.714)" fill="#2a7db8"/>
        <rect id="Rectángulo_403187" data-name="Rectángulo 403187" width="7.943" height="2.648" transform="translate(43.686 52.952)" fill="#2a7db8"/>
        <path id="Trazado_898071" data-name="Trazado 898071" d="M26,23v5.365a11.81,11.81,0,0,0,10.59,0V23Z" transform="translate(8.419 7.448)" fill="#f0b081"/>
        <path id="Trazado_898072" data-name="Trazado 898072" d="M21,11v7.943a11.914,11.914,0,1,0,23.829,0V11Z" transform="translate(6.8 3.562)" fill="#fec9a3"/>
        <path id="Trazado_898073" data-name="Trazado 898073" d="M37.267,11v7.943A11.91,11.91,0,0,1,28,30.551,11.883,11.883,0,0,0,42.562,18.943V11Z" transform="translate(9.067 3.562)" fill="#f7bb8f"/>
        <path id="Trazado_898074" data-name="Trazado 898074" d="M44.829,12.914v-5.3A6.62,6.62,0,0,0,38.21,1H27.619A6.62,6.62,0,0,0,21,7.619v7.943H52.771V12.914Z" transform="translate(6.8 0.324)" fill="#4398d1"/>
        <rect id="Rectángulo_403188" data-name="Rectángulo 403188" width="2.648" height="6.619" transform="translate(38.39 18.533)" fill="#f0b081"/>
        <rect id="Rectángulo_403189" data-name="Rectángulo 403189" width="6.619" height="7.943" transform="translate(21.181 14.562)" fill="#87ced9"/>
        <path id="Trazado_898075" data-name="Trazado 898075" d="M21.561,28.692l-3.971-2.648a1.326,1.326,0,0,1-.589-1.1V17h2.648v7.235l3.381,2.254Z" transform="translate(5.505 5.505)" fill="#87ced9"/>
        <path id="Trazado_898076" data-name="Trazado 898076" d="M64.543,46.943H76.668a13.226,13.226,0,0,0-24.25,0H26.363a13.238,13.238,0,1,0,0,10.59H52.418a13.226,13.226,0,0,0,24.25,0H64.543ZM20.857,56.21l-6.619,3.971L7.509,56.65l.11-8.384L14.238,44.3l6.619,3.971Z" transform="translate(0.324 12.629)" fill="#87ced9"/>
        <path id="Trazado_898077" data-name="Trazado 898077" d="M36.619,7.619v5.3h5.3v-5.3A6.62,6.62,0,0,0,35.3,1H30a6.62,6.62,0,0,1,6.619,6.619" transform="translate(9.714 0.324)" fill="#3e8cc7"/>
        <rect id="Rectángulo_403190" data-name="Rectángulo 403190" width="5.295" height="2.648" transform="translate(54.276 13.238)" fill="#3e8cc7"/>
        <path id="Trazado_898078" data-name="Trazado 898078" d="M56.124,46.943H68.249a13.226,13.226,0,0,0-24.25,0H37.59L27,57.533H44a13.226,13.226,0,0,0,24.25,0H56.124Z" transform="translate(8.743 12.629)" fill="#71c4d1"/>
        <rect id="Rectángulo_403191" data-name="Rectángulo 403191" width="26.476" height="2.648" transform="translate(26.476 63.543)" fill="#59b3c2"/>
        <rect id="Rectángulo_403192" data-name="Rectángulo 403192" width="2.648" height="2.648" transform="translate(22.505 22.505)" fill="#71c4d1"/>
        <path id="Trazado_898079" data-name="Trazado 898079" d="M14.562,79.429a14.561,14.561,0,0,0,12.961-7.943H51.905a14.548,14.548,0,0,0,26.3-.793,1.324,1.324,0,0,0-1.213-1.855H66.19V60.9h10.8A1.324,1.324,0,0,0,78.2,59.041a14.5,14.5,0,0,0-21.28-6.346V50.3H54.276v4.587a14.574,14.574,0,0,0-2.371,3.356H41.038V48.612l7.037-2.346a1.323,1.323,0,0,0,.905-1.256V41.038H55.6a6.627,6.627,0,0,1,6.619,6.619h2.648A9.277,9.277,0,0,0,55.6,38.39H46.333V33.952A13.234,13.234,0,0,0,52.952,22.5V15.886h6.619V13.238H52.952v-5.3A7.951,7.951,0,0,0,45.01,0H34.419a7.951,7.951,0,0,0-7.943,7.943v5.3h-5.3a1.324,1.324,0,0,0-1.324,1.324V22.5a1.324,1.324,0,0,0,1.324,1.324H22.5v6.619a1.326,1.326,0,0,0,.589,1.1L27.065,34.2l1.469-2.2-3.382-2.254V23.829h1.391A13.247,13.247,0,0,0,33.1,33.952V38.39H23.829a9.277,9.277,0,0,0-9.267,9.267H17.21a6.627,6.627,0,0,1,6.619-6.619h6.619V45.01a1.323,1.323,0,0,0,.905,1.256l7.037,2.346v9.636H27.523a14.573,14.573,0,0,0-2.371-3.356V50.3H22.5v2.389a14.55,14.55,0,1,0-7.943,26.734M26.476,21.181H22.5v-5.3h3.971ZM46.333,44.055l-3.377,1.127,2.761-4.144h.616ZM35.743,38.39V35.133a13.227,13.227,0,0,0,7.943,0V38.39ZM29.124,7.943a5.3,5.3,0,0,1,5.3-5.3H45.01a5.3,5.3,0,0,1,5.3,5.3v5.3H29.124Zm0,14.562V15.886H50.3V22.5a10.59,10.59,0,0,1-21.181,0M33.1,44.055V41.038h.616l2.761,4.144Zm3.8-3.017h5.645L39.714,45.27ZM14.562,52.952A11.917,11.917,0,0,1,25.474,60.1a1.322,1.322,0,0,0,1.213.793H52.742a1.322,1.322,0,0,0,1.213-.793,11.9,11.9,0,0,1,20.809-1.855h-9.9a1.324,1.324,0,0,0-1.324,1.324v10.59a1.324,1.324,0,0,0,1.324,1.324h9.9a11.9,11.9,0,0,1-20.809-1.855,1.322,1.322,0,0,0-1.213-.793H26.687a1.322,1.322,0,0,0-1.213.793A11.911,11.911,0,1,1,14.562,52.952"/>
        <path id="Trazado_898080" data-name="Trazado 898080" d="M5.625,56.852l6.73,3.531a1.328,1.328,0,0,0,1.3-.037l6.619-3.971a1.326,1.326,0,0,0,.642-1.136V47.3a1.322,1.322,0,0,0-.642-1.135l-6.619-3.971a1.318,1.318,0,0,0-1.362,0L5.67,46.161a1.324,1.324,0,0,0-.643,1.117l-.11,8.385a1.324,1.324,0,0,0,.708,1.189m2.04-8.8,5.3-3.184,5.3,3.178v6.443l-5.338,3.2L7.575,54.885Z" transform="translate(1.592 13.6)"/>
        <rect id="Rectángulo_403193" data-name="Rectángulo 403193" width="26.476" height="2.648" transform="translate(26.476 63.543)"/>
        <rect id="Rectángulo_403194" data-name="Rectángulo 403194" width="2.648" height="6.619" transform="translate(38.39 18.533)"/>
        <rect id="Rectángulo_403195" data-name="Rectángulo 403195" width="7.943" height="2.648" transform="translate(43.686 52.952)"/>
      </g>
    </g>
    <rect id="Rectángulo_403175" data-name="Rectángulo 403175" width="97" height="97" transform="translate(421.051 2002)" fill="none"/>
  </g>
</svg>
