<svg xmlns="http://www.w3.org/2000/svg" xmlns:xlink="http://www.w3.org/1999/xlink" width="124.461" height="124.461" viewBox="0 0 124.461 124.461">
  <defs>
    <filter id="Trazado_896985" x="0" y="0" width="124.461" height="124.461" filterUnits="userSpaceOnUse">
      <feOffset dy="3" input="SourceAlpha"/>
      <feGaussianBlur stdDeviation="3" result="blur"/>
      <feFlood flood-opacity="0.161"/>
      <feComposite operator="in" in2="blur"/>
      <feComposite in="SourceGraphic"/>
    </filter>
  </defs>
  <g id="Grupo_1108280" data-name="Grupo 1108280" transform="translate(-741.269 -2871.051)">
    <g id="Grupo_1107929" data-name="Grupo 1107929" transform="translate(-6.512 -955.949)">
      <g id="Grupo_1098742" data-name="Grupo 1098742" transform="translate(756.781 3833)">
        <g transform="matrix(1, 0, 0, 1, -9, -6)" filter="url(#Trazado_896985)">
          <g id="Trazado_896985-2" data-name="Trazado 896985" transform="translate(9 6)" fill="#d4d7fc" opacity="0.859">
            <path d="M 53.23039627075195 104.9609375 C 46.24618148803711 104.9609375 39.4716682434082 103.5934143066406 33.09505462646484 100.8963241577148 C 26.93521118164062 98.29092407226562 21.40279579162598 94.56076812744141 16.65148162841797 89.80945587158203 C 11.90016746520996 85.05814361572266 8.170010566711426 79.52572631835938 5.564610481262207 73.36588287353516 C 2.867524862289429 66.98926544189453 1.499996304512024 60.21476745605469 1.499996304512024 53.23054122924805 C 1.499996304512024 46.24617004394531 2.867524862289429 39.4716682434082 5.564610481262207 33.09505462646484 C 8.170010566711426 26.93521118164062 11.90016746520996 21.40279769897461 16.65148162841797 16.6514835357666 C 21.40279579162598 11.90016841888428 26.93521118164062 8.170011520385742 33.09505462646484 5.564611434936523 C 39.4716682434082 2.867525815963745 46.24618148803711 1.49999737739563 53.23039627075195 1.49999737739563 C 60.2146110534668 1.49999737739563 66.98912811279297 2.867525815963745 73.36573791503906 5.564611434936523 C 79.52558135986328 8.170011520385742 85.05799865722656 11.90016841888428 89.80931091308594 16.6514835357666 C 94.56062316894531 21.40279769897461 98.29077911376953 26.93521118164062 100.8961791992188 33.09505462646484 C 103.5932693481445 39.4716682434082 104.9607925415039 46.24617004394531 104.9607925415039 53.23039627075195 C 104.9607925415039 60.21476745605469 103.5932693481445 66.98926544189453 100.8961791992188 73.36588287353516 C 98.29077911376953 79.52572631835938 94.56062316894531 85.05814361572266 89.80931091308594 89.80945587158203 C 85.05799865722656 94.56076812744141 79.52558135986328 98.29092407226562 73.36573791503906 100.8963241577148 C 66.98912811279297 103.5934143066406 60.2146110534668 104.9609375 53.23039627075195 104.9609375 Z" stroke="none"/>
            <path d="M 53.23039627075195 3 C 46.44801330566406 3 39.87009429931641 4.327667236328125 33.67938232421875 6.946121215820312 C 27.69834899902344 9.475883483886719 22.32617950439453 13.09809875488281 17.71214294433594 17.71215057373047 C 13.09809875488281 22.32618713378906 9.475875854492188 27.69834899902344 6.946113586425781 33.67938232421875 C 4.327659606933594 39.87010192871094 3 46.44801712036133 3 53.23053359985352 C 3 60.01292037963867 4.327659606933594 66.59083557128906 6.946113586425781 72.78155517578125 C 9.475875854492188 78.76258850097656 13.09809875488281 84.13475036621094 17.71214294433594 88.74878692626953 C 22.32617950439453 93.36283874511719 27.69834899902344 96.98505401611328 33.67938232421875 99.51481628417969 C 39.87009429931641 102.1332702636719 46.44801330566406 103.4609375 53.23039627075195 103.4609375 C 60.01277923583984 103.4609375 66.5906982421875 102.1332702636719 72.78141784667969 99.51481628417969 C 78.76244354248047 96.98505401611328 84.13461303710938 93.36283874511719 88.74864196777344 88.74878692626953 C 93.36269378662109 84.13475036621094 96.98490905761719 78.76258850097656 99.51467895507812 72.78155517578125 C 102.1331329345703 66.59083557128906 103.4608001708984 60.01292037963867 103.4608001708984 53.23040390014648 C 103.4608001708984 46.44801712036133 102.1331329345703 39.87010192871094 99.51467895507812 33.67938232421875 C 96.98490905761719 27.69834899902344 93.36269378662109 22.32618713378906 88.74864196777344 17.71215057373047 C 84.13461303710938 13.09809875488281 78.76244354248047 9.475883483886719 72.78141784667969 6.946121215820312 C 66.5906982421875 4.327667236328125 60.01277923583984 3 53.23039627075195 3 M 53.23039627075195 0 C 82.62873077392578 0 106.4607925415039 23.83206939697266 106.4607925415039 53.23040390014648 L 106.4607925415039 53.23053359985352 C 106.4607925415039 82.62886810302734 82.62873077392578 106.4609375 53.23039627075195 106.4609375 C 23.83206176757812 106.4609375 0 82.62886810302734 0 53.23053359985352 L 0 53.23040390014648 C 0 23.83206939697266 23.83206176757812 0 53.23039627075195 0 Z" stroke="none" fill="#fff"/>
          </g>
        </g>
        <g id="Rectángulo_400907" data-name="Rectángulo 400907" transform="translate(0 0)" fill="none" stroke="#fff" stroke-width="3">
          <rect width="106.461" height="106.461" rx="53.23" stroke="none"/>
          <rect x="1.5" y="1.5" width="103.461" height="103.461" rx="51.73" fill="none"/>
        </g>
      </g>
    </g>
    <g id="_008-chassis" data-name="008-chassis" transform="translate(774.628 2879.139)">
      <path id="Trazado_898100" data-name="Trazado 898100" d="M0,0H9.816V21.174H0Z" transform="translate(67.318 61.731) rotate(180)" fill="#665e66"/>
      <path id="Trazado_898101" data-name="Trazado 898101" d="M0,0H9.816V6.1H0Z" transform="translate(67.318 61.731) rotate(180)" fill="#544f57"/>
      <path id="Trazado_898102" data-name="Trazado 898102" d="M148.286,203.9a9.481,9.481,0,0,0,8.472-5.223h12.054v-8.52H156.758a9.481,9.481,0,0,0-8.472-5.223l-7.991,10.511Z" transform="translate(-121.575 -143.269)" fill="#cbcbcb"/>
      <path id="Trazado_898103" data-name="Trazado 898103" d="M167.094,261.438v2.522H156.757a9.481,9.481,0,0,1-8.472,5.224l-7.991-8.454.35-.459,7.642,3.3c3.7,0,6.911-.867,8.472-2.131Z" transform="translate(-121.574 -208.556)" fill="#aaa"/>
      <path id="Trazado_898104" data-name="Trazado 898104" d="M27.652,88.184H13.059A5.559,5.559,0,0,1,7.5,82.625V32.656A5.559,5.559,0,0,1,13.059,27.1H27.652a5.559,5.559,0,0,1,5.559,5.559v49.97A5.559,5.559,0,0,1,27.652,88.184Z" transform="translate(-6.499 -6.497)" fill="#665e66"/>
      <path id="Trazado_898105" data-name="Trazado 898105" d="M33.216,311.56v17.572a5.558,5.558,0,0,1-5.559,5.558H13.064a5.558,5.558,0,0,1-5.558-5.558V311.56a5.558,5.558,0,0,0,5.558,5.559H27.657A5.559,5.559,0,0,0,33.216,311.56Z" transform="translate(-6.504 -253.003)" fill="#544f57"/>
      <path id="Trazado_898106" data-name="Trazado 898106" d="M343.546,201.99a2.4,2.4,0,0,0-2.4,2.4v9.621a2.4,2.4,0,0,0,4.792,0v-9.621A2.4,2.4,0,0,0,343.546,201.99Z" transform="translate(-295.629 -158.053)" fill="#e2dfe2"/>
      <path id="Trazado_898107" data-name="Trazado 898107" d="M379.461,182.156a2.4,2.4,0,0,0-2.4,2.4v14.914a2.4,2.4,0,1,0,4.792,0V184.552A2.4,2.4,0,0,0,379.461,182.156Z" transform="translate(-326.752 -140.866)" fill="#e2dfe2"/>
      <path id="Trazado_898108" data-name="Trazado 898108" d="M415.375,158.7a2.4,2.4,0,0,0-2.4,2.4v21.174a2.4,2.4,0,1,0,4.792,0V161.1A2.4,2.4,0,0,0,415.375,158.7Z" transform="translate(-357.874 -120.54)" fill="#e2dfe2"/>
      <g id="Grupo_1108275" data-name="Grupo 1108275" transform="translate(45.522 51.979)">
        <path id="Trazado_898109" data-name="Trazado 898109" d="M345.948,262.259v3.975a2.4,2.4,0,1,1-4.792,0v-3.975a2.4,2.4,0,0,0,4.792,0Z" transform="translate(-341.156 -262.259)" fill="#cbcbcb"/>
        <path id="Trazado_898110" data-name="Trazado 898110" d="M381.859,271.149v5.436a2.4,2.4,0,0,1-4.793,0v-5.436a2.4,2.4,0,0,0,4.793,0Z" transform="translate(-372.274 -269.963)" fill="#cbcbcb"/>
        <path id="Trazado_898111" data-name="Trazado 898111" d="M417.778,281.659v7.163a2.4,2.4,0,1,1-4.792,0v-7.163a2.4,2.4,0,1,0,4.792,0Z" transform="translate(-403.401 -279.07)" fill="#cbcbcb"/>
      </g>
      <path id="Trazado_898112" data-name="Trazado 898112" d="M67.318,39.556h-6.57a3.4,3.4,0,0,0-6.643,1v.034a3.393,3.393,0,0,0-4.763,2.66,3.394,3.394,0,0,0-4.79,2.633H35.78a10.422,10.422,0,0,0-8.068-5.176V26.158A6.566,6.566,0,0,0,21.153,19.6H6.56A6.566,6.566,0,0,0,0,26.158v41.85a1,1,0,0,0,2,0V26.158a4.563,4.563,0,0,1,4.015-4.523c-.106.2-.216.4-.329.6a9.39,9.39,0,0,0-1.463,5.228,9.39,9.39,0,0,0,1.463,5.228,7.4,7.4,0,0,1,1.205,4.246,7.4,7.4,0,0,1-1.205,4.244,10.071,10.071,0,0,0,0,10.456,7.4,7.4,0,0,1,1.205,4.246,7.4,7.4,0,0,1-1.205,4.246,10.072,10.072,0,0,0,0,10.456,7.4,7.4,0,0,1,1.206,4.247,7.4,7.4,0,0,1-1.206,4.245c-.236.419-.477.848-.695,1.335A4.565,4.565,0,0,1,2,76.129V72.012a1,1,0,0,0-2,0v4.118a6.566,6.566,0,0,0,6.56,6.558H21.153a6.566,6.566,0,0,0,6.558-6.558V61.58A10.422,10.422,0,0,0,35.779,56.4h8.772a3.394,3.394,0,0,0,4.79,2.633A3.393,3.393,0,0,0,54.1,61.7v.034a3.4,3.4,0,0,0,6.644,1h6.569a1,1,0,0,0,1-1V40.557a1,1,0,0,0-1-1ZM20.281,32.687a7.4,7.4,0,0,1,1.205,4.246,7.4,7.4,0,0,1-1.205,4.244,10.071,10.071,0,0,0,0,10.456,8.08,8.08,0,0,1,0,8.491,10.072,10.072,0,0,0,0,10.456,8.082,8.082,0,0,1,0,8.493,13.833,13.833,0,0,0-.813,1.612H14.381c.111-.211.227-.418.346-.629a10.075,10.075,0,0,0,0-10.458,8.08,8.08,0,0,1,0-8.491,10.071,10.071,0,0,0,0-10.456,8.079,8.079,0,0,1,0-8.491,9.387,9.387,0,0,0,1.463-5.227,9.39,9.39,0,0,0-1.463-5.228,7.4,7.4,0,0,1-1.205-4.246,7.4,7.4,0,0,1,1.205-4.246A13.825,13.825,0,0,0,15.54,21.6h5.088c-.111.211-.228.419-.347.63a9.39,9.39,0,0,0-1.463,5.227,9.389,9.389,0,0,0,1.463,5.228ZM6.226,65.353a7.4,7.4,0,0,1,1.205-4.246,9.39,9.39,0,0,0,1.463-5.228,9.39,9.39,0,0,0-1.463-5.228,8.079,8.079,0,0,1,0-8.491,9.387,9.387,0,0,0,1.463-5.227A9.39,9.39,0,0,0,7.431,31.7a7.4,7.4,0,0,1-1.205-4.246,7.4,7.4,0,0,1,1.205-4.246A13.834,13.834,0,0,0,8.244,21.6H13.33c-.111.211-.227.418-.346.629a9.39,9.39,0,0,0-1.463,5.228,9.39,9.39,0,0,0,1.463,5.228,7.4,7.4,0,0,1,1.205,4.246,7.4,7.4,0,0,1-1.205,4.244,10.071,10.071,0,0,0,0,10.456,8.08,8.08,0,0,1,0,8.491,10.072,10.072,0,0,0,0,10.456,8.082,8.082,0,0,1,0,8.493,13.833,13.833,0,0,0-.813,1.612H7.084c.111-.211.228-.419.347-.63a9.39,9.39,0,0,0,1.463-5.227A9.394,9.394,0,0,0,7.431,69.6a7.4,7.4,0,0,1-1.205-4.246ZM25.71,76.129A4.563,4.563,0,0,1,21.7,80.652c.106-.2.216-.4.329-.6a10.075,10.075,0,0,0,0-10.458,8.08,8.08,0,0,1,0-8.491,10.071,10.071,0,0,0,0-10.456,8.079,8.079,0,0,1,0-8.491,9.387,9.387,0,0,0,1.463-5.227,9.39,9.39,0,0,0-1.463-5.228,7.4,7.4,0,0,1-1.205-4.246,7.4,7.4,0,0,1,1.206-4.245c.236-.419.477-.848.695-1.335a4.565,4.565,0,0,1,2.99,4.279ZM35.183,54.4a1,1,0,0,0-.894.55,8.441,8.441,0,0,1-6.578,4.614V42.721a8.441,8.441,0,0,1,6.578,4.614,1,1,0,0,0,.894.55H44.52V54.4ZM47.917,57.35a1.4,1.4,0,0,1-1.4-1.4V46.333a1.4,1.4,0,1,1,2.791,0v9.621A1.4,1.4,0,0,1,47.917,57.35ZM54.1,58.6a1.4,1.4,0,0,1-2.791,0V43.687a1.4,1.4,0,0,1,2.791,0ZM66.317,60.73H60.9V48.049a1,1,0,0,0-2,0V61.73a1.4,1.4,0,1,1-2.79,0V40.557a1.4,1.4,0,1,1,2.79,0v3.489a1,1,0,1,0,2,0V41.558h5.419Z"/>
    </g>
  </g>
</svg>
