<svg xmlns="http://www.w3.org/2000/svg" xmlns:xlink="http://www.w3.org/1999/xlink" width="124.461" height="124.461" viewBox="0 0 124.461 124.461">
  <defs>
    <filter id="Trazado_896985" x="0" y="0" width="124.461" height="124.461" filterUnits="userSpaceOnUse">
      <feOffset dy="3" input="SourceAlpha"/>
      <feGaussianBlur stdDeviation="3" result="blur"/>
      <feFlood flood-opacity="0.161"/>
      <feComposite operator="in" in2="blur"/>
      <feComposite in="SourceGraphic"/>
    </filter>
  </defs>
  <g id="Grupo_1108279" data-name="Grupo 1108279" transform="translate(-314.32 -2871.051)">
    <g id="Grupo_1108276" data-name="Grupo 1108276" transform="translate(-433.461 -955.949)">
      <g id="Grupo_1098742" data-name="Grupo 1098742" transform="translate(756.781 3833)">
        <g transform="matrix(1, 0, 0, 1, -9, -6)" filter="url(#Trazado_896985)">
          <g id="Trazado_896985-2" data-name="Trazado 896985" transform="translate(9 6)" fill="#d4d7fc" opacity="0.859">
            <path d="M 53.23039627075195 104.9609375 C 46.24618148803711 104.9609375 39.4716682434082 103.5934143066406 33.09505462646484 100.8963241577148 C 26.93521118164062 98.29092407226562 21.40279579162598 94.56076812744141 16.65148162841797 89.80945587158203 C 11.90016746520996 85.05814361572266 8.170010566711426 79.52572631835938 5.564610481262207 73.36588287353516 C 2.867524862289429 66.98926544189453 1.499996304512024 60.21476745605469 1.499996304512024 53.23054122924805 C 1.499996304512024 46.24617004394531 2.867524862289429 39.4716682434082 5.564610481262207 33.09505462646484 C 8.170010566711426 26.93521118164062 11.90016746520996 21.40279769897461 16.65148162841797 16.6514835357666 C 21.40279579162598 11.90016841888428 26.93521118164062 8.170011520385742 33.09505462646484 5.564611434936523 C 39.4716682434082 2.867525815963745 46.24618148803711 1.49999737739563 53.23039627075195 1.49999737739563 C 60.2146110534668 1.49999737739563 66.98912811279297 2.867525815963745 73.36573791503906 5.564611434936523 C 79.52558135986328 8.170011520385742 85.05799865722656 11.90016841888428 89.80931091308594 16.6514835357666 C 94.56062316894531 21.40279769897461 98.29077911376953 26.93521118164062 100.8961791992188 33.09505462646484 C 103.5932693481445 39.4716682434082 104.9607925415039 46.24617004394531 104.9607925415039 53.23039627075195 C 104.9607925415039 60.21476745605469 103.5932693481445 66.98926544189453 100.8961791992188 73.36588287353516 C 98.29077911376953 79.52572631835938 94.56062316894531 85.05814361572266 89.80931091308594 89.80945587158203 C 85.05799865722656 94.56076812744141 79.52558135986328 98.29092407226562 73.36573791503906 100.8963241577148 C 66.98912811279297 103.5934143066406 60.2146110534668 104.9609375 53.23039627075195 104.9609375 Z" stroke="none"/>
            <path d="M 53.23039627075195 3 C 46.44801330566406 3 39.87009429931641 4.327667236328125 33.67938232421875 6.946121215820312 C 27.69834899902344 9.475883483886719 22.32617950439453 13.09809875488281 17.71214294433594 17.71215057373047 C 13.09809875488281 22.32618713378906 9.475875854492188 27.69834899902344 6.946113586425781 33.67938232421875 C 4.327659606933594 39.87010192871094 3 46.44801712036133 3 53.23053359985352 C 3 60.01292037963867 4.327659606933594 66.59083557128906 6.946113586425781 72.78155517578125 C 9.475875854492188 78.76258850097656 13.09809875488281 84.13475036621094 17.71214294433594 88.74878692626953 C 22.32617950439453 93.36283874511719 27.69834899902344 96.98505401611328 33.67938232421875 99.51481628417969 C 39.87009429931641 102.1332702636719 46.44801330566406 103.4609375 53.23039627075195 103.4609375 C 60.01277923583984 103.4609375 66.5906982421875 102.1332702636719 72.78141784667969 99.51481628417969 C 78.76244354248047 96.98505401611328 84.13461303710938 93.36283874511719 88.74864196777344 88.74878692626953 C 93.36269378662109 84.13475036621094 96.98490905761719 78.76258850097656 99.51467895507812 72.78155517578125 C 102.1331329345703 66.59083557128906 103.4608001708984 60.01292037963867 103.4608001708984 53.23040390014648 C 103.4608001708984 46.44801712036133 102.1331329345703 39.87010192871094 99.51467895507812 33.67938232421875 C 96.98490905761719 27.69834899902344 93.36269378662109 22.32618713378906 88.74864196777344 17.71215057373047 C 84.13461303710938 13.09809875488281 78.76244354248047 9.475883483886719 72.78141784667969 6.946121215820312 C 66.5906982421875 4.327667236328125 60.01277923583984 3 53.23039627075195 3 M 53.23039627075195 0 C 82.62873077392578 0 106.4607925415039 23.83206939697266 106.4607925415039 53.23040390014648 L 106.4607925415039 53.23053359985352 C 106.4607925415039 82.62886810302734 82.62873077392578 106.4609375 53.23039627075195 106.4609375 C 23.83206176757812 106.4609375 0 82.62886810302734 0 53.23053359985352 L 0 53.23040390014648 C 0 23.83206939697266 23.83206176757812 0 53.23039627075195 0 Z" stroke="none" fill="#fff"/>
          </g>
        </g>
        <g id="Rectángulo_400907" data-name="Rectángulo 400907" transform="translate(0 0)" fill="none" stroke="#fff" stroke-width="3">
          <rect width="106.461" height="106.461" rx="53.23" stroke="none"/>
          <rect x="1.5" y="1.5" width="103.461" height="103.461" rx="51.73" fill="none"/>
        </g>
      </g>
    </g>
    <g id="_035-gear" data-name="035-gear" transform="translate(340.826 2894.561)">
      <path id="Trazado_898127" data-name="Trazado 898127" d="M76.664,40.845a.66.66,0,0,0,.191-.5,34.541,34.541,0,0,0-2.219-10.536.655.655,0,0,0-.989-.3,2.04,2.04,0,0,1-1.488.354,2.1,2.1,0,0,1-1.712-2.615l.932-3.478a.659.659,0,0,0-.084-.528,34.878,34.878,0,0,0-7.194-8,.655.655,0,0,0-1.006.235,2.038,2.038,0,0,1-1.108,1.042A2.1,2.1,0,0,1,59.2,15.116l-.931-3.478a.661.661,0,0,0-.335-.415,34.449,34.449,0,0,0-10.25-3.337.647.647,0,0,0-.735.708,2.061,2.061,0,0,1-.584,1.634,2.1,2.1,0,0,1-2.968,0L40.855,7.693a.656.656,0,0,0-.5-.193A34.563,34.563,0,0,0,29.816,9.72a.656.656,0,0,0-.3.991,2.058,2.058,0,0,1,.309,1.7A2.1,2.1,0,0,1,27.259,13.9l-3.473-.931a.659.659,0,0,0-.528.084,34.888,34.888,0,0,0-8,7.2.657.657,0,0,0,.235,1.006A2.06,2.06,0,0,1,16.6,22.578a2.1,2.1,0,0,1-1.48,2.573l-3.474.931a.658.658,0,0,0-.415.334A34.472,34.472,0,0,0,7.891,36.672a.647.647,0,0,0,.707.735,2.059,2.059,0,0,1,1.631.586,2.1,2.1,0,0,1,0,2.968L7.7,43.5a.655.655,0,0,0-.191.5A34.565,34.565,0,0,0,9.722,54.536a.659.659,0,0,0,.992.3,2.054,2.054,0,0,1,1.7-.309A2.1,2.1,0,0,1,13.9,57.1l-.929,3.47a.652.652,0,0,0,.082.528,34.876,34.876,0,0,0,7.2,8.007.658.658,0,0,0,1.008-.236,2.054,2.054,0,0,1,1.318-1.112,2.1,2.1,0,0,1,2.573,1.481l.931,3.474a.662.662,0,0,0,.335.415,34.483,34.483,0,0,0,10.241,3.341.655.655,0,0,0,.75-.707,2.036,2.036,0,0,1,.437-1.46,2.1,2.1,0,0,1,3.12-.175l2.539,2.538a.656.656,0,0,0,.5.193,34.581,34.581,0,0,0,10.538-2.218.655.655,0,0,0,.3-.989,2.038,2.038,0,0,1-.354-1.487A2.1,2.1,0,0,1,57.1,70.447l3.475.931a.651.651,0,0,0,.528-.082,34.914,34.914,0,0,0,8-7.194.655.655,0,0,0-.235-1.006,2.044,2.044,0,0,1-1.042-1.108A2.1,2.1,0,0,1,69.237,59.2l3.479-.932a.655.655,0,0,0,.416-.335,34.483,34.483,0,0,0,3.336-10.234.655.655,0,0,0-.707-.75,2.04,2.04,0,0,1-1.464-.437,2.1,2.1,0,0,1-.175-3.12ZM53.432,26.884a2.858,2.858,0,1,1,0,4.041A2.858,2.858,0,0,1,53.432,26.884ZM42.18,20.548a2.858,2.858,0,1,1-2.858,2.859A2.858,2.858,0,0,1,42.18,20.548ZM23.41,45.034a2.858,2.858,0,1,1,2.858-2.858A2.858,2.858,0,0,1,23.41,45.034Zm7.518,12.435a2.858,2.858,0,1,1,0-4.041A2.857,2.857,0,0,1,30.928,57.469Zm0-26.545a2.858,2.858,0,1,1,0-4.041,2.857,2.857,0,0,1,0,4.041ZM42.18,63.805a2.858,2.858,0,1,1,2.858-2.859A2.859,2.859,0,0,1,42.18,63.805Zm0-14.994a6.635,6.635,0,1,1,6.635-6.635A6.635,6.635,0,0,1,42.18,48.811Zm15.294,8.658a2.858,2.858,0,1,1,0-4.041A2.858,2.858,0,0,1,57.474,57.469Zm3.477-12.435a2.858,2.858,0,1,1,2.858-2.858A2.857,2.857,0,0,1,60.951,45.034Z" transform="translate(-6.455 -6.456)" fill="#818181"/>
      <path id="Trazado_898128" data-name="Trazado 898128" d="M90.516,63.684a26.837,26.837,0,1,0,26.838,26.837A26.837,26.837,0,0,0,90.516,63.684Zm11.252,11.544a2.858,2.858,0,1,1,0,4.041A2.858,2.858,0,0,1,101.767,75.228ZM90.516,68.892a2.858,2.858,0,1,1-2.858,2.859,2.858,2.858,0,0,1,2.858-2.859ZM71.746,93.378A2.858,2.858,0,1,1,74.6,90.521,2.858,2.858,0,0,1,71.746,93.378Zm7.518,12.435a2.858,2.858,0,1,1,0-4.041A2.857,2.857,0,0,1,79.264,105.814Zm0-26.545a2.858,2.858,0,1,1,0-4.041A2.857,2.857,0,0,1,79.264,79.269Zm11.252,32.88a2.858,2.858,0,1,1,2.858-2.859,2.859,2.859,0,0,1-2.858,2.859Zm0-14.994a6.635,6.635,0,1,1,6.635-6.635A6.635,6.635,0,0,1,90.516,97.155Zm15.294,8.658a2.858,2.858,0,1,1,0-4.041A2.858,2.858,0,0,1,105.81,105.814Zm3.477-12.435a2.858,2.858,0,1,1,2.858-2.858A2.857,2.857,0,0,1,109.287,93.378Z" transform="translate(-54.791 -54.8)" fill="#cbcbcb"/>
      <path id="Trazado_898129" data-name="Trazado 898129" d="M189.829,179.1a10.73,10.73,0,1,0,10.73,10.73A10.73,10.73,0,0,0,189.829,179.1Zm0,17.365a6.635,6.635,0,1,1,6.635-6.635A6.635,6.635,0,0,1,189.829,196.469Z" transform="translate(-154.105 -154.114)" fill="#e2dfe2"/>
      <path id="Trazado_898130" data-name="Trazado 898130" d="M66.835,90.517A26.838,26.838,0,0,1,92.094,63.726q-.783-.046-1.578-.046a26.837,26.837,0,0,0,0,53.674q.8,0,1.578-.046A26.838,26.838,0,0,1,66.835,90.517Z" transform="translate(-54.791 -54.797)" fill="#aaa"/>
      <path id="Trazado_898131" data-name="Trazado 898131" d="M84.062,111.951a27.883,27.883,0,1,1,13.329-52.38,1.047,1.047,0,0,1-1,1.838A25.818,25.818,0,1,0,99.752,63.6a1.047,1.047,0,1,1,1.274-1.66,28.143,28.143,0,0,1,7.95,9.595,27.6,27.6,0,0,1,2.971,12.537A27.916,27.916,0,0,1,84.062,111.951Z" transform="translate(-48.337 -48.348)"/>
      <path id="Trazado_898132" data-name="Trazado 898132" d="M183.381,195.159a11.777,11.777,0,1,1,11.777-11.777A11.79,11.79,0,0,1,183.381,195.159Zm0-21.461a9.684,9.684,0,1,0,9.684,9.684,9.694,9.694,0,0,0-9.684-9.684Z" transform="translate(-147.655 -147.661)"/>
      <path id="Trazado_898133" data-name="Trazado 898133" d="M208.633,216.316a7.682,7.682,0,1,1,7.682-7.682A7.69,7.69,0,0,1,208.633,216.316Zm0-13.27a5.588,5.588,0,1,0,5.589,5.588A5.595,5.595,0,0,0,208.633,203.046Z" transform="translate(-172.907 -172.914)"/>
      <path id="Trazado_898134" data-name="Trazado 898134" d="M37.515,71.444a1.706,1.706,0,0,1-1.2-.5l-2.539-2.537a1.048,1.048,0,0,0-1.564.089.991.991,0,0,0-.211.717,1.7,1.7,0,0,1-1.959,1.829A35.505,35.505,0,0,1,19.486,67.6a1.709,1.709,0,0,1-.869-1.071l-.932-3.479a1.05,1.05,0,0,0-1.288-.742,1.011,1.011,0,0,0-.647.552,1.708,1.708,0,0,1-1.173.937,1.683,1.683,0,0,1-1.44-.339,35.855,35.855,0,0,1-7.413-8.248,1.7,1.7,0,0,1-.215-1.373l.928-3.466a1.051,1.051,0,0,0-.745-1.288,1.01,1.01,0,0,0-.838.157,1.708,1.708,0,0,1-1.488.227,1.684,1.684,0,0,1-1.079-1.014c-.333-.874-.637-1.778-.9-2.688a1.047,1.047,0,0,1,2.009-.587c.206.707.437,1.409.687,2.095a3.11,3.11,0,0,1,4.064,1.254A3.127,3.127,0,0,1,8.46,50.91l-.885,3.3A33.765,33.765,0,0,0,14.1,61.538a3.131,3.131,0,0,1,5.605.969l.886,3.306A33.414,33.414,0,0,0,29.907,68.9a3.059,3.059,0,0,1,.669-1.714,3.141,3.141,0,0,1,4.676-.257l2.416,2.415a33.535,33.535,0,0,0,9.607-1.978A3.062,3.062,0,0,1,47,65.542a3.143,3.143,0,0,1,3.921-2.562l3.308.886a33.8,33.8,0,0,0,7.317-6.523A3.068,3.068,0,0,1,60.4,55.91a3.144,3.144,0,0,1,2.113-4.18l3.314-.888A33.406,33.406,0,0,0,68.9,41.535a3.066,3.066,0,0,1-1.716-.669,3.143,3.143,0,0,1-.259-4.676l2.419-2.419a33.483,33.483,0,0,0-1.979-9.606,3.064,3.064,0,0,1-1.823.279,3.142,3.142,0,0,1-2.562-3.92l.887-3.309A33.764,33.764,0,0,0,57.344,9.9a3.058,3.058,0,0,1-1.435,1.146,3.143,3.143,0,0,1-4.178-2.114L50.845,5.62a33.376,33.376,0,0,0-9.308-3.078,3.1,3.1,0,0,1-.887,1.966,3.142,3.142,0,0,1-4.452.006L33.782,2.1a33.524,33.524,0,0,0-9.613,1.98,3.131,3.131,0,0,1-3.636,4.379l-3.3-.886A33.773,33.773,0,0,0,9.9,14.1a3.131,3.131,0,0,1-.969,5.6l-3.306.886a33.387,33.387,0,0,0-3.081,9.314,3.131,3.131,0,0,1,1.97,5.339L2.1,37.656A33.87,33.87,0,0,0,2.5,41.227a1.047,1.047,0,0,1-2.065.34A35.922,35.922,0,0,1,0,37.59,1.7,1.7,0,0,1,.5,36.3l2.537-2.535a1.05,1.05,0,0,0,0-1.485,1.019,1.019,0,0,0-.809-.285,1.712,1.712,0,0,1-1.4-.545A1.662,1.662,0,0,1,.4,30.05,35.479,35.479,0,0,1,3.845,19.483a1.71,1.71,0,0,1,1.078-.87l3.472-.93A1.051,1.051,0,0,0,9.136,16.4a1.018,1.018,0,0,0-.554-.65,1.7,1.7,0,0,1-.934-1.171,1.683,1.683,0,0,1,.341-1.442,35.873,35.873,0,0,1,8.243-7.411A1.708,1.708,0,0,1,17.6,5.5l3.475.931A1.05,1.05,0,0,0,22.36,5.69a1.015,1.015,0,0,0-.158-.84,1.7,1.7,0,0,1-.229-1.482,1.684,1.684,0,0,1,1.015-1.082A35.607,35.607,0,0,1,33.848,0,1.7,1.7,0,0,1,35.14.5l2.539,2.537a1.049,1.049,0,0,0,1.488,0,1.016,1.016,0,0,0,.281-.807A1.713,1.713,0,0,1,39.993.819,1.662,1.662,0,0,1,41.392.4,35.473,35.473,0,0,1,51.951,3.835a1.709,1.709,0,0,1,.869,1.071l.932,3.484a1.05,1.05,0,0,0,1.4.7,1,1,0,0,0,.541-.514,1.7,1.7,0,0,1,2.615-.6,35.862,35.862,0,0,1,7.408,8.238,1.706,1.706,0,0,1,.218,1.368L65,21.067a1.035,1.035,0,0,0,.134.844,1.046,1.046,0,0,0,.727.465,1,1,0,0,0,.728-.177,1.7,1.7,0,0,1,2.568.784,35.571,35.571,0,0,1,2.286,10.853,1.709,1.709,0,0,1-.492,1.287L68.407,37.67a1.049,1.049,0,0,0,.09,1.564.992.992,0,0,0,.718.211A1.7,1.7,0,0,1,71.047,41.4,35.509,35.509,0,0,1,67.61,51.948a1.706,1.706,0,0,1-1.082.872l-3.475.931a1.051,1.051,0,0,0-.7,1.4,1,1,0,0,0,.515.541,1.7,1.7,0,0,1,.6,2.615,35.9,35.9,0,0,1-8.239,7.408,1.7,1.7,0,0,1-1.374.216L50.376,65a1.05,1.05,0,0,0-1.311.861.989.989,0,0,0,.177.727,1.7,1.7,0,0,1-.784,2.567A35.611,35.611,0,0,1,37.6,71.441c-.029,0-.058,0-.087,0Zm-7.6-2.055h0Zm-9.475-3.655h0Zm33.642-1.771,0,0Zm.313-.053h0Zm7.578-6.324h0ZM7.531,54.379v0ZM65.991,50.8h0ZM67.2,23.728h0ZM5.464,20.636h0Zm4.019-6.778h0Z" transform="translate(0 0)"/>
      <path id="Trazado_898135" data-name="Trazado 898135" d="M231.923,101.319a3.9,3.9,0,1,1,3.9-3.9A3.909,3.909,0,0,1,231.923,101.319Zm0-5.716a1.811,1.811,0,1,0,1.811,1.811A1.813,1.813,0,0,0,231.923,95.6Z" transform="translate(-196.198 -80.464)"/>
      <path id="Trazado_898136" data-name="Trazado 898136" d="M231.923,370.34a3.9,3.9,0,1,1,3.9-3.9A3.909,3.909,0,0,1,231.923,370.34Zm0-5.716a1.811,1.811,0,1,0,1.811,1.811A1.813,1.813,0,0,0,231.923,364.624Z" transform="translate(-196.198 -311.945)"/>
      <path id="Trazado_898137" data-name="Trazado 898137" d="M136.822,140.726a3.9,3.9,0,1,1,2.761-6.663h0a3.9,3.9,0,0,1-2.761,6.663Zm0-5.713a1.81,1.81,0,1,0,1.281.53A1.806,1.806,0,0,0,136.822,135.013Z" transform="translate(-114.369 -114.375)"/>
      <path id="Trazado_898138" data-name="Trazado 898138" d="M327.048,330.952a3.9,3.9,0,1,1,2.761-6.663h0a3.9,3.9,0,0,1-2.761,6.663Zm0-5.713a1.81,1.81,0,1,0,1.281.53A1.806,1.806,0,0,0,327.048,325.239Z" transform="translate(-278.05 -278.056)"/>
      <path id="Trazado_898139" data-name="Trazado 898139" d="M97.412,235.83a3.9,3.9,0,1,1,3.9-3.9A3.909,3.909,0,0,1,97.412,235.83Zm0-5.715a1.811,1.811,0,1,0,1.811,1.811A1.813,1.813,0,0,0,97.412,230.114Z" transform="translate(-80.457 -196.205)"/>
      <path id="Trazado_898140" data-name="Trazado 898140" d="M366.433,235.83a3.9,3.9,0,1,1,3.9-3.9A3.909,3.909,0,0,1,366.433,235.83Zm0-5.715a1.811,1.811,0,1,0,1.811,1.811A1.813,1.813,0,0,0,366.433,230.114Z" transform="translate(-311.938 -196.205)"/>
      <path id="Trazado_898141" data-name="Trazado 898141" d="M136.822,330.951a3.9,3.9,0,0,1-2.761-6.663h0a3.9,3.9,0,1,1,2.761,6.663Zm-1.281-5.183a1.811,1.811,0,1,0,2.561,0A1.813,1.813,0,0,0,135.541,325.768Z" transform="translate(-114.369 -278.056)"/>
      <path id="Trazado_898142" data-name="Trazado 898142" d="M327.048,140.725a3.9,3.9,0,0,1-2.761-6.663h0a3.9,3.9,0,1,1,2.761,6.663Zm-1.281-5.183a1.811,1.811,0,1,0,2.561,0A1.813,1.813,0,0,0,325.767,135.542Z" transform="translate(-278.05 -114.375)"/>
    </g>
  </g>
</svg>
