<svg xmlns="http://www.w3.org/2000/svg" width="97" height="97" viewBox="0 0 97 97">
  <g id="Grupo_1108274" data-name="Grupo 1108274" transform="translate(-838.051 -2002)">
    <rect id="Rectángulo_403200" data-name="Rectángulo 403200" width="97" height="97" transform="translate(838.051 2002)" fill="none"/>
    <g id="_005-manual_transmission" data-name="005-manual transmission" transform="translate(769.221 2009.5)">
      <path id="Trazado_898092" data-name="Trazado 898092" d="M139.029,311.432H109.2A9.873,9.873,0,0,0,99.33,321.3v10.8a9.873,9.873,0,0,0,9.873,9.873h29.826A9.873,9.873,0,0,0,148.9,332.1V321.3A9.873,9.873,0,0,0,139.029,311.432Z" transform="translate(-6.313 -262.163)" fill="#544f57"/>
      <path id="Trazado_898093" data-name="Trazado 898093" d="M169.9,303.165H147.943a7.267,7.267,0,0,0-7.267,7.267v7.949a7.267,7.267,0,0,0,7.267,7.267H169.9a7.267,7.267,0,0,0,7.267-7.267v-7.949A7.267,7.267,0,0,0,169.9,303.165Z" transform="translate(-41.118 -255.204)" fill="#665e66"/>
      <path id="Trazado_898094" data-name="Trazado 898094" d="M195.042,294.9H179.5a5.145,5.145,0,0,0-5.145,5.145v5.628a5.145,5.145,0,0,0,5.145,5.145h15.544a5.145,5.145,0,0,0,5.145-5.145v-5.628A5.145,5.145,0,0,0,195.042,294.9Z" transform="translate(-69.468 -248.244)" fill="#756e78"/>
      <path id="Trazado_898095" data-name="Trazado 898095" d="M224.928,170.214a5.84,5.84,0,0,1-5.84-5.84V133.283h11.679v31.092A5.84,5.84,0,0,1,224.928,170.214Z" transform="translate(-107.125 -112.197)" fill="#e2dfe2"/>
      <path id="Trazado_898096" data-name="Trazado 898096" d="M227.038,169.82a5.844,5.844,0,0,1-7.95-5.447V133.28h4.219v31.093A5.842,5.842,0,0,0,227.038,169.82Z" transform="translate(-107.125 -112.195)" fill="#cbcbcb"/>
      <circle id="Elipse_11500" data-name="Elipse 11500" cx="13.58" cy="13.58" r="13.58" transform="translate(104.222 1.187)" fill="#6bbcd5"/>
      <path id="Trazado_898097" data-name="Trazado 898097" d="M187.227,34.206a13.579,13.579,0,1,1,0-26.254,13.582,13.582,0,0,0,0,26.254Z" transform="translate(-65.941 -6.313)" fill="#5798af"/>
      <path id="Trazado_898098" data-name="Trazado 898098" d="M140.618,51.406a10.988,10.988,0,0,0-7.264-3.3,8.435,8.435,0,0,0-3.9-1.3,6.3,6.3,0,0,0-3.882-1.335h-.747V27.751a14.762,14.762,0,0,0,4.295-22.465A1.186,1.186,0,1,0,127.3,6.81,12.362,12.362,0,1,1,124,4.03a1.187,1.187,0,0,0,1.187-2.055,14.766,14.766,0,1,0-14.41,25.775V45.467h-.747a6.3,6.3,0,0,0-3.882,1.335,8.436,8.436,0,0,0-3.9,1.3A11.055,11.055,0,0,0,91.83,59.142v10.8A11.071,11.071,0,0,0,102.888,81h29.827a11.071,11.071,0,0,0,11.058-11.058v-10.8a11,11,0,0,0-3.156-7.737ZM117.8,29.532a14.707,14.707,0,0,0,4.653-.752v23.4a4.653,4.653,0,1,1-9.305,0V28.78A14.707,14.707,0,0,0,117.8,29.532ZM110.03,47.84h.747v4.338a7.026,7.026,0,0,0,14.052,0V47.84h.747a3.963,3.963,0,0,1,3.958,3.958v5.627a3.963,3.963,0,0,1-3.958,3.958H110.03a3.963,3.963,0,0,1-3.958-3.958V51.8A3.963,3.963,0,0,1,110.03,47.84Zm31.372,22.1a8.7,8.7,0,0,1-8.685,8.685H102.888A8.7,8.7,0,0,1,94.2,69.941v-10.8a8.7,8.7,0,0,1,5.182-7.952,8.472,8.472,0,0,0-1.014,4.038v7.95a8.452,8.452,0,0,0,5.729,8.005,1.187,1.187,0,1,0,.765-2.246,6.08,6.08,0,0,1-4.121-5.759v-7.95a6.051,6.051,0,0,1,3.269-5.4A6.3,6.3,0,0,0,103.7,51.8v5.627a6.338,6.338,0,0,0,6.331,6.331h15.545a6.339,6.339,0,0,0,6.331-6.331V51.8a6.308,6.308,0,0,0-.316-1.971,6.051,6.051,0,0,1,3.269,5.4v7.95a6.087,6.087,0,0,1-6.08,6.08H109.2a1.187,1.187,0,0,0,0,2.373H128.78a8.462,8.462,0,0,0,8.453-8.453v-7.95a8.473,8.473,0,0,0-1.014-4.038,8.7,8.7,0,0,1,5.182,7.952Z" transform="translate(0 0)"/>
      <path id="Trazado_898099" data-name="Trazado 898099" d="M216.117,62.062v2.763h-2.623V62.062a1.187,1.187,0,0,0-2.373,0v2.763H208.5V62.062a1.187,1.187,0,0,0-2.373,0v2.763H203.5V62.062a1.187,1.187,0,0,0-2.373,0v3.949a1.187,1.187,0,0,0,1.187,1.187h3.81V69.96a1.187,1.187,0,0,0,2.373,0V67.2h2.623V69.96a1.187,1.187,0,0,0,2.373,0V67.2h2.623V69.96a1.187,1.187,0,1,0,2.373,0v-7.9a1.187,1.187,0,1,0-2.373,0Z" transform="translate(-92.007 -51.244)"/>
    </g>
  </g>
</svg>
